<svg width="181" height="182" xmlns="http://www.w3.org/2000/svg" xmlns:xlink="http://www.w3.org/1999/xlink" overflow="hidden"><g transform="translate(-1007 -300)"><g><g><g><path d="M1167.31 442.75 1143.88 419.312C1140.69 416.125 1136.38 415 1132.25 415.75L1124 407.5C1131.31 398.125 1135.62 386.125 1135.62 373.375 1135.62 342.438 1110.31 317.125 1079.38 317.125 1048.44 317.125 1023.12 342.438 1023.12 373.375 1023.12 404.312 1048.44 429.625 1079.38 429.625 1092.12 429.625 1103.94 425.312 1113.5 418L1121.75 426.25C1121 430.375 1122.12 434.688 1125.31 437.875L1148.75 461.312C1151.38 463.938 1154.75 465.25 1158.12 465.25 1161.5 465.25 1164.88 463.938 1167.5 461.312 1172.38 456.062 1172.38 447.812 1167.31 442.75ZM1079.19 418.188C1054.44 418.188 1034.19 397.938 1034.19 373.188 1034.19 348.438 1054.44 328.188 1079.19 328.188 1103.94 328.188 1124.19 348.438 1124.19 373.188 1124.19 397.938 1103.94 418.188 1079.19 418.188Z" stroke="#FFFFFF" stroke-width="1.87496"/></g></g></g></g></svg>